HIERARCHY
ROOT Hips
{
	OFFSET -14.64140 90.27770 -84.91600
	CHANNELS 6 Xposition Yposition Zposition Zrotation Xrotation Yrotation
	JOINT Spine
	{
		OFFSET 0.00000 13.20850 -1.60436
		CHANNELS 3 Zrotation Xrotation Yrotation
		JOINT Spine1
		{
			OFFSET 0.00000 8.61716 0.00000
			CHANNELS 3 Zrotation Xrotation Yrotation
			JOINT Spine2
			{
				OFFSET 0.00000 8.61717 0.00000
				CHANNELS 3 Zrotation Xrotation Yrotation
				JOINT Spine3
				{
					OFFSET 0.00000 8.61717 0.00000
					CHANNELS 3 Zrotation Xrotation Yrotation
					JOINT Neck
					{
						OFFSET 0.00000 11.07920 1.10792
						CHANNELS 3 Zrotation Xrotation Yrotation
						JOINT Neck1
						{
							OFFSET 0.00000 7.08032 0.00000
							CHANNELS 3 Zrotation Xrotation Yrotation
							JOINT Head
							{
								OFFSET 0.00000 7.08031 0.00000
								CHANNELS 3 Zrotation Xrotation Yrotation
								End site
								{
									OFFSET 0.00000 0.00000 0.00000
								}
							}
						}
					}
					JOINT RightShoulder
					{
						OFFSET -0.01000 7.91373 5.19711
						CHANNELS 3 Zrotation Xrotation Yrotation
						JOINT RightArm
						{
							OFFSET -18.41580 0.00000 0.00000
							CHANNELS 3 Zrotation Xrotation Yrotation
							JOINT RightForeArm
							{
								OFFSET -29.11090 0.00000 0.00000
								CHANNELS 3 Zrotation Xrotation Yrotation
								JOINT RightHand
								{
									OFFSET -24.65040 0.00000 0.00000
									CHANNELS 3 Zrotation Xrotation Yrotation
									JOINT RightHandThumb1
									{
										OFFSET -5.35114 -0.85590 3.97906
										CHANNELS 3 Zrotation Xrotation Yrotation
										JOINT RightHandThumb2
										{
											OFFSET -4.52789 0.00000 0.00000
											CHANNELS 3 Zrotation Xrotation Yrotation
											JOINT RightHandThumb3
											{
												OFFSET -2.46976 0.00000 0.00000
												CHANNELS 3 Zrotation Xrotation Yrotation
												End site
												{
													OFFSET 0.00000 0.00000 0.00000
												}
											}
										}
									}
									JOINT RightHandIndex1
									{
										OFFSET -14.26970 0.00000 2.88139
										CHANNELS 3 Zrotation Xrotation Yrotation
										JOINT RightHandIndex2
										{
											OFFSET -5.48836 0.00000 0.00000
											CHANNELS 3 Zrotation Xrotation Yrotation
											JOINT RightHandIndex3
											{
												OFFSET -3.01859 0.00000 0.00000
												CHANNELS 3 Zrotation Xrotation Yrotation
												End site
												{
													OFFSET 0.00000 0.00000 0.00000
												}
											}
										}
									}
									JOINT RightHandMiddle1
									{
										OFFSET -14.26970 0.00000 -0.09147
										CHANNELS 3 Zrotation Xrotation Yrotation
										JOINT RightHandMiddle2
										{
											OFFSET -6.17441 0.00000 0.00000
											CHANNELS 3 Zrotation Xrotation Yrotation
											JOINT RightHandMiddle3
											{
												OFFSET -3.56743 0.00000 0.00000
												CHANNELS 3 Zrotation Xrotation Yrotation
												End site
												{
													OFFSET 0.00000 0.00000 0.00000
												}
											}
										}
									}
									JOINT RightHandRing1
									{
										OFFSET -12.69180 0.00000 -3.06433
										CHANNELS 3 Zrotation Xrotation Yrotation
										JOINT RightHandRing2
										{
											OFFSET -5.62556 0.00000 0.00000
											CHANNELS 3 Zrotation Xrotation Yrotation
											JOINT RightHandRing3
											{
												OFFSET -3.56744 0.00000 0.00000
												CHANNELS 3 Zrotation Xrotation Yrotation
												End site
												{
													OFFSET 0.00000 0.00000 0.00000
												}
											}
										}
									}
									JOINT RightHandPinky1
									{
										OFFSET -11.11390 0.00000 -6.03719
										CHANNELS 3 Zrotation Xrotation Yrotation
										JOINT RightHandPinky2
										{
											OFFSET -4.52789 0.00000 0.00000
											CHANNELS 3 Zrotation Xrotation Yrotation
											JOINT RightHandPinky3
											{
												OFFSET -2.46976 0.00000 0.00000
												CHANNELS 3 Zrotation Xrotation Yrotation
												End site
												{
													OFFSET 0.00000 0.00000 0.00000
												}
											}
										}
									}
								}
							}
						}
					}
					JOINT LeftShoulder
					{
						OFFSET 0.01000 7.91373 5.19711
						CHANNELS 3 Zrotation Xrotation Yrotation
						JOINT LeftArm
						{
							OFFSET 18.41580 0.00000 0.00000
							CHANNELS 3 Zrotation Xrotation Yrotation
							JOINT LeftForeArm
							{
								OFFSET 29.11090 0.00000 0.00000
								CHANNELS 3 Zrotation Xrotation Yrotation
								JOINT LeftHand
								{
									OFFSET 24.65040 0.00000 0.00000
									CHANNELS 3 Zrotation Xrotation Yrotation
									JOINT LeftHandThumb1
									{
										OFFSET 5.35114 -0.85590 3.97906
										CHANNELS 3 Zrotation Xrotation Yrotation
										JOINT LeftHandThumb2
										{
											OFFSET 4.52789 0.00000 0.00000
											CHANNELS 3 Zrotation Xrotation Yrotation
											JOINT LeftHandThumb3
											{
												OFFSET 2.46977 0.00000 0.00000
												CHANNELS 3 Zrotation Xrotation Yrotation
												End site
												{
													OFFSET 0.00000 0.00000 0.00000
												}
											}
										}
									}
									JOINT LeftHandIndex1
									{
										OFFSET 14.26970 0.00000 2.88139
										CHANNELS 3 Zrotation Xrotation Yrotation
										JOINT LeftHandIndex2
										{
											OFFSET 5.48836 0.00000 0.00000
											CHANNELS 3 Zrotation Xrotation Yrotation
											JOINT LeftHandIndex3
											{
												OFFSET 3.01859 0.00000 0.00000
												CHANNELS 3 Zrotation Xrotation Yrotation
												End site
												{
													OFFSET 0.00000 0.00000 0.00000
												}
											}
										}
									}
									JOINT LeftHandMiddle1
									{
										OFFSET 14.26970 0.00000 -0.09147
										CHANNELS 3 Zrotation Xrotation Yrotation
										JOINT LeftHandMiddle2
										{
											OFFSET 6.17440 0.00000 0.00000
											CHANNELS 3 Zrotation Xrotation Yrotation
											JOINT LeftHandMiddle3
											{
												OFFSET 3.56744 0.00000 0.00000
												CHANNELS 3 Zrotation Xrotation Yrotation
												End site
												{
													OFFSET 0.00000 0.00000 0.00000
												}
											}
										}
									}
									JOINT LeftHandRing1
									{
										OFFSET 12.69180 0.00000 -3.06433
										CHANNELS 3 Zrotation Xrotation Yrotation
										JOINT LeftHandRing2
										{
											OFFSET 5.62556 0.00000 0.00000
											CHANNELS 3 Zrotation Xrotation Yrotation
											JOINT LeftHandRing3
											{
												OFFSET 3.56744 0.00000 0.00000
												CHANNELS 3 Zrotation Xrotation Yrotation
												End site
												{
													OFFSET 0.00000 0.00000 0.00000
												}
											}
										}
									}
									JOINT LeftHandPinky1
									{
										OFFSET 11.11390 0.00000 -6.03719
										CHANNELS 3 Zrotation Xrotation Yrotation
										JOINT LeftHandPinky2
										{
											OFFSET 4.52789 0.00000 0.00000
											CHANNELS 3 Zrotation Xrotation Yrotation
											JOINT LeftHandPinky3
											{
												OFFSET 2.46976 0.00000 0.00000
												CHANNELS 3 Zrotation Xrotation Yrotation
												End site
												{
													OFFSET 0.00000 0.00000 0.00000
												}
											}
										}
									}
								}
							}
						}
					}
					JOINT pCube4
					{
						OFFSET 0.00000 10.91090 1.10792
						CHANNELS 3 Zrotation Xrotation Yrotation
						End site
						{
							OFFSET 0.00000 0.00000 0.00000
						}
					}
				}
			}
		}
	}
	JOINT RightUpLeg
	{
		OFFSET -9.98441 0.00000 0.00000
		CHANNELS 3 Zrotation Xrotation Yrotation
		JOINT RightLeg
		{
			OFFSET 0.00000 -42.11790 0.00000
			CHANNELS 3 Zrotation Xrotation Yrotation
			JOINT RightFoot
			{
				OFFSET 0.00000 -45.00020 -0.00001
				CHANNELS 3 Zrotation Xrotation Yrotation
				JOINT RightForeFoot
				{
					OFFSET 0.00000 -3.74820 0.00000
					CHANNELS 3 Zrotation Xrotation Yrotation
					JOINT RightToeBase
					{
						OFFSET 0.00000 0.06325 14.43120
						CHANNELS 3 Zrotation Xrotation Yrotation
						End site
						{
							OFFSET 0.00000 0.00000 0.00000
						}
					}
				}
			}
		}
	}
	JOINT LeftUpLeg
	{
		OFFSET 9.98441 0.00000 0.00000
		CHANNELS 3 Zrotation Xrotation Yrotation
		JOINT LeftLeg
		{
			OFFSET 0.00000 -42.11800 0.00000
			CHANNELS 3 Zrotation Xrotation Yrotation
			JOINT LeftFoot
			{
				OFFSET 0.00000 -45.00070 0.00000
				CHANNELS 3 Zrotation Xrotation Yrotation
				JOINT LeftForeFoot
				{
					OFFSET 0.00000 -3.74824 0.00000
					CHANNELS 3 Zrotation Xrotation Yrotation
					JOINT LeftToeBase
					{
						OFFSET 0.00000 0.06325 14.43110
						CHANNELS 3 Zrotation Xrotation Yrotation
						End site
						{
							OFFSET 0.00000 0.00000 0.00000
						}
					}
				}
			}
		}
	}
}
MOTION
Frames: 4
Frame Time: 0.050000
-0.025305616955497885 -0.042030257407706606 -0.04361324936356472 0.011449770111323433 0.041317272855352014 -0.039550832895842415 -3.7525344986976075 3.0404350369939213 -0.6058087230775616 -0.7816642068165894 3.2913384280084426 0.3862248636170765 -0.9813669879362139 -1.3170791827647232 -2.2110835125062396 -0.31468173082673406 0.4312633011863519 -0.9960890956042635 -0.8849268892951683 10.472683720072185 1.4675369154091746 -0.12603035582660282 -0.7974855282879731 1.7610005051082687 -0.4848276724690962 -15.708995006144328 0.20357120365899584 0.468429409464699 0.6222408730786075 -11.342865007681677 69.17979610154397 23.70968317363442 9.105918304223891 20.571863134250513 5.844266528976119 81.80402375832523 25.607782797039633 -0.2052310679076709 -6.289249230072029 4.534007600409217 -0.11535634752562261 -1.5473084856422754 0.0031230802538709497 0.028490139515438596 -56.22965473885495 -0.007047086211696095 -0.012363497669191714 -56.27952091473732 -38.77700398753502 -0.03857223613776113 -0.004340973456941451 0.024286041027124904 0.035707583445021604 -0.03223568329144633 -0.015153927102809082 -0.023188316349569308 -0.028226069205539345 -36.67331449835241 0.0035090530226803427 -0.03803628236489289 -0.005960209780445546 0.009193428322375038 0.019333526728984626 -0.02197483761428615 -0.034911251032885574 -0.013735507194365205 -19.79714661951862 -0.008858317916189028 0.015067068959047481 0.005788438546197426 0.0005562560456389285 -0.03590841103527716 0.0491441585399989 0.030578429583239645 -0.0010059379428438286 24.08478884698063 -0.04674133034352761 0.01732851999213074 28.894466070735287 0.007059025706960008 0.03041607384862773 28.88396446474947 -0.006024236583359953 -0.031080830964851192 3.5786780433759064 1.0966097633694114 9.94828167318754 -62.83073954961922 26.14777475506557 -21.63306281115654 -42.05538716780739 6.516192638418865 -81.9957243076825 -16.236466622462277 1.5020456514524168 -0.7268452928579235 -0.50268942755152 0.11212505707077727 -8.119591639390832 -0.04573470785094482 -0.01128652937122922 44.55974157508027 0.03405934585063436 0.001975193260057891 44.54481134183365 12.424556375716447 0.03478860498530487 0.005113069983393303 -0.04672681707283867 -0.01570656771722657 0.027635748833806588 0.04978731537733809 -0.014057697107628834 -0.018176124184605673 11.108875212404115 -0.0228923566395659 -0.03505039624480921 0.043375091032947316 0.02316695278137159 -0.002960461876917328 0.04454137992158021 0.03370736828384561 0.027712488162981403 4.802008609360511 -0.012417672918203228 -0.027259572238969767 0.03778188698016259 -0.005250175754986959 -0.0006841130323432965 0.008951695648396568 0.03796011772335454 -0.010508297812038339 -5.568067075354211 0.03909098211559312 -0.003086817978937632 -6.746393740677938 -0.011722532956644759 0.04111460985126153 -6.69478881719345 0.0024807712619923372 0.03847644898010838 -0.024430273507549602 -0.03941763151731961 0.014855354618292833 7.9965639643848325 3.4870035619164463 -19.18704783029226 -0.003411060128394362 10.345541964236089 -0.03438392127445149 -5.58917386214628 -15.618015353580127 3.1777246990863213 -0.004984610234231915 0.009463049873813158 0.049182902340609035 -0.032102204678319944 4.732998974390622 -0.030942902359760573 12.436432959677827 -8.200180477107214 6.873098419791268 0.005275692492371283 46.3528676026448 -0.042705220878487944 -4.301518193269119 -14.708807781614183 -3.8690509742750576 0.016256840469987415 -0.0015561711079234866 -0.0314124564690798 -0.040173068363151876 -10.78510249975434 0.0057690026497757944 
-0.0020055624276243025 -0.029878692902292656 -0.046349855736065926 0.03038144232801254 0.04008439916894946 0.02039267065730646 -3.7874486327542964 3.1050665871126735 -0.6650395164044072 -0.7843635017581051 3.362819132675235 0.34870727232626003 -0.9706463194635933 -1.3677842895636736 -1.8787060658321728 -0.3915863234737657 0.4430959862092731 -0.945701507940673 -0.8196547366075521 10.36433368572817 1.6315477327352943 -0.1218169974718128 -0.8879581392581525 1.6684927598817791 -0.5321496857017471 -15.854481586272005 0.15886787548029077 0.4065190372725455 0.696265249447198 -11.666257149706183 69.66365662598335 24.181902473606748 7.086290084975962 16.404138897630233 5.756132536168927 75.38123157631975 26.114748653620175 -0.17800898209939417 -5.952749325971581 4.514017511212782 -0.13351712894156398 -1.6183705303108535 -0.01146062830685993 -0.014216919278953457 -56.23674202123449 0.028262699178090947 -0.02102373439977433 -56.2296009794791 -38.78050011707454 -0.041407576522130625 0.014212073088437898 -0.03820396228048492 0.005474513570731792 -0.04665463705413759 0.027338615048777784 0.024811765092549686 0.0030748811887040435 -36.665482885049705 0.0077559775527412935 0.037830980288419316 0.015096198250648023 0.04665499967575713 -0.018621879285506772 -0.019777777580356183 -0.013294516658476046 0.0011000559570365847 -19.77230764248811 0.008398913061265004 0.028987302020774822 0.011112479905021873 0.0476031862476231 -0.007972230193391681 -0.01353108466456766 -0.04713853434661415 0.04340419797603791 24.04120831536883 -0.030765540441105882 0.019099161316849664 28.829539555406818 0.00668314328059628 0.00015175757838136201 28.87117447611369 -0.016210820146493377 0.04875926326172703 3.076771472669815 1.075373195960739 10.342320024922765 -64.80664365110117 25.99646277850451 -16.798680669837516 -38.992487308937804 6.853977741331539 -75.79714840678074 -15.879331166391559 1.9955479221421832 -0.7281669157545857 -0.5218796627072847 0.043741841527448026 -8.087804052077686 0.02442187260822047 -0.04015800908726616 44.59894401657983 -0.002798175267951778 -0.0050171276625207255 44.55745152440193 12.422476148750649 0.037784240498920374 0.009172460353827272 0.027924249683150427 0.03256753202554842 -0.037851339416407254 0.03599069553536833 -0.02359046005916208 -0.023589761508543725 11.125421978843077 0.029318917634946533 -0.0019513403304210904 0.04749118686930879 -0.017485386294240575 0.032136906401383926 0.005337502229973962 0.02597654737498919 0.013865318238417452 4.749479811629473 0.04624897495000492 0.04050392429769033 -0.044564384780041426 -0.0436975755354199 -0.026022371339822395 0.03632327441524239 -0.010109139695916468 -0.030619465011767863 -5.643404639239357 -0.018798083512635053 0.026870866141743943 -6.770912065593971 0.018846206793035464 0.048176940059907136 -6.681106977120425 0.028590693557808612 0.009124317131037691 0.036848144454115085 -0.028547627661344107 -0.027329224100936834 8.026589798431644 3.5041611142961107 -19.19193773512548 -0.013238998240603381 10.421957162353644 -0.016891712370433788 -5.632552267560249 -15.641693042093332 3.1564426191353094 -0.00022160816574268226 0.03394073117374176 0.019556088812690463 0.026212352611812414 4.714973962738462 -0.0077422120674058865 12.503222240754178 -8.2546593833117 6.924418891606086 0.03735606468537997 46.42650711924834 0.02617281588896004 -4.289146648762356 -14.712823105055133 -3.809364316947394 0.02414177507615086 0.0001325012496759654 -0.03875153865317408 -0.01863137574621509 -10.775418432985427 -0.021077894635680678 
0.026414085336548668 -0.010183479968356174 -0.04867018429261569 0.00989378747587312 -0.014810171785603142 0.012231466615616431 -3.8200401282777583 2.995932082672392 -0.5936009942563711 -0.8154222125534843 3.3811997981933404 0.3706899792022407 -1.0671431666251963 -1.4068893959567754 -1.6039384120366693 -0.41023077437562194 0.3878124584308408 -0.9761404714069577 -0.7420007969028392 10.36888930312491 1.6065311402746603 -0.1543976970384389 -0.9799948078516163 1.575056930442998 -0.4264430661392356 -15.99750678137356 0.12088883366734132 0.2885049360331885 0.6744450608757898 -11.884881830200719 70.01233562477633 24.590108013568514 5.554272548639642 13.083635567034742 5.212799176720706 69.91752722801488 26.557627261200853 -0.20210454020214685 -5.665685188863172 4.529265135527492 -0.17125703222049662 -1.5539090577249803 0.00451753109250737 0.0023885058018882394 -56.26269617302406 0.012784823575094443 -0.032807573052316526 -56.27917422420452 -38.74421650081745 -0.027140104932873287 0.005636758802047999 -0.03281148123561561 0.010430180487982417 0.0009566469884081624 -0.022627638916445175 0.02697499588801652 -0.047245971877751945 -36.720007654894424 -0.015507185324880641 0.0027341958382673826 0.01800758584688954 -0.008473453890110037 -0.04291616548005188 -0.0370699822485134 0.014868712237246895 0.011369179254459549 -19.72414822453754 0.047771259523634785 -0.020739132738920057 0.019824564710555156 0.039581749843150604 0.014431983152661811 -0.0276749585668241 0.012503938584242131 0.04771470352586513 24.066993748993482 0.04272461869497424 -0.04680032007091282 28.81703425432983 0.046603061408833184 -0.008756275232581547 28.868910008091895 -0.008963010472132259 -0.02291230937244345 2.7209982242576145 0.9634295717889403 10.647590621603864 -66.57305035094356 25.74715217687036 -13.11072678295506 -37.02347376694108 6.999122472338159 -70.45150836830072 -15.657218028336075 2.172091189420298 -0.6529573101060364 -0.500954324385741 0.021313498604061273 -8.1726629186468 0.011140490269163543 -0.024999195556704847 44.549070854836906 -0.016884302304835064 0.02412706516376382 44.56092725532121 12.44862020095019 0.030709729903879733 -0.04371825250854126 0.04121077444516127 0.043258273122173514 0.03268925011202593 -0.03648422291144128 -0.045015432155309794 -0.0034216655341097603 11.146022040339483 -0.04260195320201045 -0.027181421341449522 0.019803035651728574 0.035040183811587806 -0.03680413920149712 0.03235023491894191 0.03439666563089808 0.0026971954567719006 4.740457362695298 -0.03304731543137581 0.013250921556449724 0.026531480454540225 0.008982749588212756 0.019032945583463103 -0.037082358806249945 0.02833638361698569 0.026225992239348225 -5.564332357433892 -0.023617866625227118 0.04890442511000129 -6.761736580125959 -0.014284708162889247 -0.012239410820541769 -6.732255203070934 -0.023928770529298538 -0.049656740069242984 -0.02549020019367861 0.011006442823385542 0.02780834034207137 8.00910537318181 3.528177017055587 -19.238510172489256 -0.044459134147213385 10.364471032395146 0.023247340332187692 -5.574813397905107 -15.689702898380487 3.222039661836115 0.020727359906329002 -0.03221329270910531 -0.049165854804155154 -0.03035632225719821 4.670387072870839 -0.018438685926265533 12.501209256870059 -8.229702098913757 6.916695623802954 0.0025386091072295614 46.415834499651496 -0.023263596099432193 -4.305331862426518 -14.738181423228117 -3.8476071965811283 -0.03683967215020056 -0.018439361006486174 -0.022855178261497626 0.037162710415592944 -10.771622342358425 -0.026431112830375053 
-0.023590157471076872 0.033364893612333316 0.026865504868786652 0.004347189591775175 0.04051818049024264 -0.014417187627935979 -3.7797534592939517 2.862790124186746 -0.6619491986776315 -0.8783839247332967 3.3471710143137687 0.3442271701030601 -1.0520137204500868 -1.4551875805392864 -1.518742294341329 -0.4546724070429904 0.3657489962142244 -0.96583731027155 -0.6764496800471974 10.30667263304688 1.5642744304083671 -0.12780902532117513 -0.9312612226987983 1.3012320042317185 -0.4265473756878349 -15.916573567602578 0.13910395543590795 0.021208630738345183 0.8133322456686839 -12.11221735775536 70.48308916768384 24.520403051005804 4.287769386947285 9.850006201452434 3.8142595200751472 67.0546051529612 26.402553243519094 -0.24588119614180592 -5.3432860658233965 4.5032887654963 -0.16431448085480374 -1.6400163452546097 -0.017346072426648085 -0.021381016258183085 -56.26480240239827 -0.02147848396412757 0.015173106812379197 -56.200146001488264 -38.812293829910075 -0.03027490641257946 0.016297918425028302 -0.0010228454454581308 -0.039993161530091324 0.018361468873352372 0.00934718176669924 -0.002209458160955671 0.04704330530365591 -36.7077845567345 0.01109660542696006 -0.023748794738379885 0.019971109316326275 0.012509439317386534 0.01982461870066707 -0.02096172013286126 0.016421553780340596 -0.027236688472607382 -19.761892385931993 0.005682357996998953 -0.02656797647987745 0.010744662129910714 -0.011887819015246381 -0.016497541064215904 0.014693544988206539 -0.028626959441162458 0.011615677115046586 24.0318670511495 0.0415685943729965 -0.020415956053985572 28.864170786499077 -0.04688099226243136 0.008560727793303531 28.90368039948947 -0.001498885711722185 -0.021415214854577817 2.5636172176357874 0.9416370813005561 10.933872588874252 -67.72700157264592 25.790234591489607 -10.67277568063254 -34.177522398593354 6.3795789294538015 -66.5018858342472 -15.083504879253054 2.2623793289407965 -0.629053840051901 -0.4856367839718212 0.08775534924963423 -8.139253506130379 -0.016299683417595037 -0.03090718589469584 44.57056249050421 0.011062102073062175 -0.027634788696580544 44.56622479670713 12.48758717870829 -0.0028149417947440597 -0.04852549134349872 -0.01815377397422188 -0.0070672775061901396 0.03071970470410467 0.0015458184437003644 -0.043180853134655715 0.03598896495669915 11.101067954103064 -0.02065825203369107 -0.0006935860357626641 0.023845529448665158 0.04730707802870386 0.020555069663223235 -0.023958544474998084 -0.029259750933447827 -0.01754265590904366 4.783712959555369 -0.00822741075382827 -0.02100963162928897 0.018101240663693497 -0.014252657064676204 0.026648157789337046 0.042243507224044304 0.03911386067546235 0.0023050768416641933 -5.623214763696074 -0.041957653380444264 0.02899265536401976 -6.703117613726916 -0.036104975956127605 0.020008701901181463 -6.685022953131835 -0.023550726293643624 0.025769162505966673 -0.03197516515268546 0.03318952931050467 0.048643118050552145 8.091985291416888 3.536528658221532 -19.20031177221602 -0.04508313091865076 10.441671752302769 0.016839800761213344 -5.654743244082665 -15.617860741438209 3.18349522738604 0.020089061956559903 0.04417957952009184 0.03943265789354918 -0.03479783851815875 4.737928873842504 0.03487726906612824 12.441832259658101 -8.2138215929792 6.908720102452855 -0.021582583236350057 46.39732962776836 0.010054167562346162 -4.284140858702354 -14.759724011711043 -3.8248401195771518 0.032265151906911566 -0.03600429859228139 0.016864261842290475 0.025384987192137273 -10.758372120573007 -0.01680084549528933 
